<svg width="14.000000" height="14.000000" viewBox="0 0 14 14" fill="none" xmlns="http://www.w3.org/2000/svg" xmlns:xlink="http://www.w3.org/1999/xlink">
	<desc>
			Created with Pixso.
	</desc>
	<defs>
		<clipPath id="clip86_199">
			<rect id="Log out" width="14.000000" height="14.000000" fill="white" fill-opacity="0"/>
		</clipPath>
	</defs>
	<g clip-path="url(#clip86_199)">
		<path id="path" d="M6.97 1.01L6.99 1C7.41 1 7.74 1.32 7.74 1.75C7.74 2.17 7.41 2.5 6.99 2.5L6.97 2.48L6.97 1.01ZM6.97 11.52L7 11.5C7.41 11.5 7.75 11.83 7.75 12.25C7.75 12.67 7.41 13 7 13L6.97 12.98L6.97 11.52Z" fill="#000000" fill-opacity="0" fill-rule="nonzero"/>
		<path id="path" d="M6.99 1.75L1.75 1.75L1.75 12.25L7 12.25" stroke="#808080" stroke-opacity="1.000000" stroke-width="1.500000" stroke-linejoin="round" stroke-linecap="round"/>
		<path id="path" d="M10.15 10.12L10.15 10.15C9.85 10.45 9.39 10.45 9.09 10.15C8.79 9.85 8.79 9.39 9.09 9.09L9.12 9.09L10.15 10.12ZM9.12 4.9L9.09 4.9C8.79 4.6 8.79 4.14 9.09 3.84C9.39 3.54 9.85 3.54 10.15 3.84L10.15 3.87L9.12 4.9Z" fill="#000000" fill-opacity="0" fill-rule="nonzero"/>
		<path id="path" d="M9.62 9.62L12.25 7L9.62 4.37" stroke="#808080" stroke-opacity="1.000000" stroke-width="1.500000" stroke-linejoin="round" stroke-linecap="round"/>
		<path id="path" d="M4.68 7.72L4.66 7.74C4.24 7.74 3.91 7.41 3.91 6.99C3.91 6.57 4.24 6.24 4.66 6.24L4.68 6.26L4.68 7.72ZM12.23 6.26L12.25 6.24C12.66 6.24 13 6.57 13 6.99C13 7.41 12.66 7.74 12.25 7.74L12.23 7.72L12.23 6.26Z" fill="#000000" fill-opacity="0" fill-rule="nonzero"/>
		<path id="path" d="M4.66 6.99L12.25 6.99" stroke="#808080" stroke-opacity="1.000000" stroke-width="1.500000" stroke-linejoin="round" stroke-linecap="round"/>
	</g>
</svg>
