<svg width="14.000000" height="14.000000" viewBox="0 0 14 14" fill="none" xmlns="http://www.w3.org/2000/svg" xmlns:xlink="http://www.w3.org/1999/xlink">
	<desc>
			Created with Pixso.
	</desc>
	<defs>
		<clipPath id="clip86_192">
			<rect id="Moon" width="14.000000" height="14.000000" fill="white" fill-opacity="0"/>
		</clipPath>
	</defs>
	<g clip-path="url(#clip86_192)">
		<path id="path" d="M8.18 1.28C6.58 1.7 5.4 3.15 5.4 4.87C5.4 6.92 7.07 8.59 9.12 8.59C10.84 8.59 12.29 7.41 12.71 5.81C12.79 6.19 12.83 6.59 12.83 7C12.83 10.22 10.22 12.83 7 12.83C3.77 12.83 1.16 10.22 1.16 7C1.16 3.77 3.77 1.16 7 1.16C7.4 1.16 7.8 1.2 8.18 1.28Z" fill="#000000" fill-opacity="0" fill-rule="nonzero"/>
		<path id="path" d="M5.4 4.87C5.4 6.92 7.07 8.59 9.12 8.59C10.84 8.59 12.29 7.41 12.71 5.81C12.79 6.19 12.83 6.59 12.83 7C12.83 10.22 10.22 12.83 7 12.83C3.77 12.83 1.16 10.22 1.16 7C1.16 3.77 3.77 1.16 7 1.16C7.4 1.16 7.8 1.2 8.18 1.28C6.58 1.7 5.4 3.15 5.4 4.87Z" stroke="#808080" stroke-opacity="1.000000" stroke-width="1.500000" stroke-linejoin="round"/>
	</g>
</svg>
