<svg width="14.166992" height="14.165100" viewBox="0 0 14.167 14.1651" fill="none" xmlns="http://www.w3.org/2000/svg" xmlns:xlink="http://www.w3.org/1999/xlink">
	<desc>
			Created with Pixso.
	</desc>
	<defs/>
	<path id="path" d="M0.75 13.15C0.75 13.3 0.86 13.41 1.01 13.41L13.15 13.41C13.29 13.41 13.41 13.3 13.41 13.15L13.41 12.85C13.42 12.76 13.43 12.3 13.12 11.79C12.93 11.47 12.66 11.19 12.3 10.96C11.87 10.69 11.32 10.49 10.66 10.37C10.65 10.37 10.16 10.31 9.66 10.18C8.78 9.95 8.7 9.76 8.7 9.75C8.7 9.73 8.69 9.71 8.68 9.7C8.67 9.66 8.65 9.52 8.69 9.15C8.77 8.2 9.28 7.64 9.69 7.19C9.82 7.05 9.94 6.91 10.04 6.78C10.44 6.22 10.48 5.57 10.48 5.53C10.48 5.45 10.47 5.38 10.45 5.32C10.41 5.2 10.33 5.12 10.28 5.07C10.27 5.05 10.25 5.04 10.24 5.03C10.24 5.02 10.23 5.01 10.24 4.94C10.27 4.71 10.3 4.51 10.31 4.33C10.32 3.99 10.34 3.49 10.25 3.01C10.24 2.92 10.22 2.84 10.19 2.73C10.1 2.4 9.96 2.11 9.75 1.87C9.72 1.84 8.87 0.94 6.4 0.76C6.06 0.73 5.73 0.75 5.39 0.76C5.31 0.77 5.21 0.77 5.1 0.8C4.85 0.86 4.78 1.03 4.76 1.12C4.73 1.27 4.79 1.38 4.82 1.46C4.82 1.47 4.83 1.48 4.82 1.52C4.76 1.61 4.67 1.69 4.58 1.76C4.55 1.79 3.94 2.32 3.9 3.02C3.81 3.55 3.82 4.37 3.93 4.94C3.93 4.97 3.94 5.02 3.93 5.05C3.81 5.16 3.68 5.27 3.68 5.54C3.68 5.57 3.72 6.22 4.12 6.78C4.21 6.91 4.34 7.05 4.46 7.19C4.87 7.64 5.38 8.2 5.47 9.15C5.5 9.52 5.48 9.66 5.48 9.7C5.47 9.71 5.46 9.73 5.45 9.75C5.45 9.76 5.38 9.95 4.5 10.18C4 10.31 3.5 10.37 3.49 10.37C2.84 10.48 2.3 10.68 1.87 10.95C1.51 11.17 1.24 11.45 1.04 11.77C0.73 12.29 0.74 12.76 0.75 12.85L0.75 13.15Z" fill="#000000" fill-opacity="0" fill-rule="nonzero"/>
	<path id="path" d="M1.01 13.41L13.15 13.41C13.29 13.41 13.41 13.3 13.41 13.15L13.41 12.85C13.42 12.76 13.43 12.3 13.12 11.79C12.93 11.47 12.66 11.19 12.3 10.96C11.87 10.69 11.32 10.49 10.66 10.37C10.65 10.37 10.16 10.31 9.66 10.18C8.78 9.95 8.7 9.76 8.7 9.75C8.7 9.73 8.69 9.71 8.68 9.7C8.67 9.66 8.65 9.52 8.69 9.15C8.77 8.2 9.28 7.64 9.69 7.19C9.82 7.05 9.94 6.91 10.04 6.78C10.44 6.22 10.48 5.57 10.48 5.53C10.48 5.45 10.47 5.38 10.45 5.32C10.41 5.2 10.33 5.12 10.28 5.07C10.27 5.05 10.25 5.04 10.24 5.03C10.24 5.02 10.23 5.01 10.24 4.94C10.27 4.71 10.3 4.51 10.31 4.33C10.32 3.99 10.34 3.49 10.25 3.01C10.24 2.92 10.22 2.84 10.19 2.73C10.1 2.4 9.96 2.11 9.75 1.87C9.72 1.84 8.87 0.94 6.4 0.76C6.06 0.73 5.73 0.75 5.39 0.76C5.31 0.77 5.21 0.77 5.1 0.8C4.85 0.86 4.78 1.03 4.76 1.12C4.73 1.27 4.79 1.38 4.82 1.46C4.82 1.47 4.83 1.48 4.82 1.52C4.76 1.61 4.67 1.69 4.58 1.76C4.55 1.79 3.94 2.32 3.9 3.02C3.81 3.55 3.82 4.37 3.93 4.94C3.93 4.97 3.94 5.02 3.93 5.05C3.81 5.16 3.68 5.27 3.68 5.54C3.68 5.57 3.72 6.22 4.12 6.78C4.21 6.91 4.34 7.05 4.46 7.19C4.87 7.64 5.38 8.2 5.47 9.15C5.5 9.52 5.48 9.66 5.48 9.7C5.47 9.71 5.46 9.73 5.45 9.75C5.45 9.76 5.38 9.95 4.5 10.18C4 10.31 3.5 10.37 3.49 10.37C2.84 10.48 2.3 10.68 1.87 10.95C1.51 11.17 1.24 11.45 1.04 11.77C0.73 12.29 0.74 12.76 0.75 12.85L0.75 13.15C0.75 13.3 0.86 13.41 1.01 13.41Z" stroke="#808080" stroke-opacity="1.000000" stroke-width="1.500000" stroke-linejoin="round"/>
</svg>
