<svg width="14.000000" height="14.000000" viewBox="0 0 14 14" fill="none" xmlns="http://www.w3.org/2000/svg" xmlns:xlink="http://www.w3.org/1999/xlink">
	<desc>
			Created with Pixso.
	</desc>
	<defs>
		<clipPath id="clip86_196">
			<rect id="Set up" width="14.000000" height="14.000000" fill="white" fill-opacity="0"/>
		</clipPath>
	</defs>
	<g clip-path="url(#clip86_196)">
		<path id="path" d="M5.33 12.59C4.35 12.3 3.48 11.76 2.79 11.04C3.05 10.74 3.2 10.34 3.2 9.91C3.2 8.95 2.42 8.16 1.45 8.16C1.39 8.16 1.34 8.16 1.28 8.17C1.2 7.79 1.16 7.4 1.16 7C1.16 6.39 1.26 5.8 1.43 5.24C2.39 5.24 3.2 4.46 3.2 3.5C3.2 3.22 3.14 2.96 3.02 2.72C3.7 2.09 4.52 1.63 5.43 1.37C5.72 1.94 6.31 2.33 7 2.33C7.68 2.33 8.27 1.94 8.55 1.37C9.47 1.63 10.29 2.09 10.97 2.72C10.85 2.96 10.79 3.22 10.79 3.5C10.79 4.46 11.57 5.25 12.54 5.25C12.71 5.8 12.83 6.39 12.83 7C12.83 7.4 12.79 7.79 12.71 8.17C12.65 8.16 12.6 8.16 12.54 8.16C11.57 8.16 10.79 8.95 10.79 9.91C10.79 10.34 10.94 10.74 11.2 11.04C10.51 11.76 9.64 12.3 8.66 12.59C8.44 11.88 7.78 11.37 7 11.37C6.21 11.37 5.55 11.88 5.33 12.59Z" fill="#000000" fill-opacity="0" fill-rule="nonzero"/>
		<path id="path" d="M2.79 11.04C3.05 10.74 3.2 10.34 3.2 9.91C3.2 8.95 2.42 8.16 1.45 8.16C1.39 8.16 1.34 8.16 1.28 8.17C1.2 7.79 1.16 7.4 1.16 7C1.16 6.39 1.26 5.8 1.43 5.24C2.39 5.24 3.2 4.46 3.2 3.5C3.2 3.22 3.14 2.96 3.02 2.72C3.7 2.09 4.52 1.63 5.43 1.37C5.72 1.94 6.31 2.33 7 2.33C7.68 2.33 8.27 1.94 8.55 1.37C9.47 1.63 10.29 2.09 10.97 2.72C10.85 2.96 10.79 3.22 10.79 3.5C10.79 4.46 11.57 5.25 12.54 5.25C12.71 5.8 12.83 6.39 12.83 7C12.83 7.4 12.79 7.79 12.71 8.17C12.65 8.16 12.6 8.16 12.54 8.16C11.57 8.16 10.79 8.95 10.79 9.91C10.79 10.34 10.94 10.74 11.2 11.04C10.51 11.76 9.64 12.3 8.66 12.59C8.44 11.88 7.78 11.37 7 11.37C6.21 11.37 5.55 11.88 5.33 12.59C4.35 12.3 3.48 11.76 2.79 11.04Z" stroke="#808080" stroke-opacity="1.000000" stroke-width="1.500000" stroke-linejoin="round"/>
		<path id="path" d="M7 9.04C8.12 9.04 9.04 8.12 9.04 7C9.04 5.87 8.12 4.95 7 4.95C5.87 4.95 4.95 5.87 4.95 7C4.95 8.12 5.87 9.04 7 9.04Z" fill="#000000" fill-opacity="0" fill-rule="nonzero"/>
		<path id="path" d="M9.04 7C9.04 5.87 8.12 4.95 7 4.95C5.87 4.95 4.95 5.87 4.95 7C4.95 8.12 5.87 9.04 7 9.04C8.12 9.04 9.04 8.12 9.04 7Z" stroke="#808080" stroke-opacity="1.000000" stroke-width="1.500000" stroke-linejoin="round"/>
	</g>
</svg>
